<?xml version="1.0" encoding="UTF-8"?>
<svg xmlns="http://www.w3.org/2000/svg" xmlns:xlink="http://www.w3.org/1999/xlink" width="512" height="512" viewBox="0 0 60 60" version="1.1"><!-- Generator: Sketch 51.3 (57544) - http://www.bohemiancoding.com/sketch --><title>019 - Home Insurance</title><desc>Created with Sketch.</desc><defs/><g id="Page-1" stroke="none" stroke-width="1" fill="none" fill-rule="evenodd"><g id="019---Home-Insurance" fill="#000000" fill-rule="nonzero"><path d="M59.4,26.65 L56,25.161 L56,22.49 C56.0039416,21.8709428 55.7165089,21.2860764 55.224,20.911 L28.614,0.211 C28.2528664,-0.0699253009 27.7471336,-0.0699253009 27.386,0.211 L18,7.512 L18,5 C18,3.8954305 17.1045695,3 16,3 L10,3 C8.8954305,3 8,3.8954305 8,5 L8,15.291 L0.785,20.9 C0.286741321,21.2761429 -0.00433889651,21.8657193 4.4408921e-16,22.49 L4.4408921e-16,27.96 C5.79356983e-16,29.0645695 0.8954305,29.96 2,29.96 C2.4445736,29.9601414 2.87593258,29.8088307 3.223,29.531 L6,27.371 L6,57 C6,58.6568542 7.34314575,60 9,60 L44,60 C44.3852231,59.9998286 44.7606229,59.8784272 45.073,59.653 L55.439,52.175 C58.2989808,50.108123 59.9950002,46.7956606 60,43.267 L60,27.567 C60.0001929,27.1692018 59.7645881,26.8091192 59.4,26.65 Z M10,5 L16,5 L16,9.068 L10,13.735 L10,5 Z M2,27.96 L2,22.49 L7.6,18.136 L7.615,18.129 L28,2.267 L48.386,18.129 C48.393,18.129 48.402,18.136 48.409,18.141 L54,22.49 L54,24.29 L44.4,20.09 C44.2169047,20.0160919 44.0156427,19.9996979 43.823,20.043 L28.614,8.21 C28.2528664,7.9290747 27.7471336,7.9290747 27.386,8.21 L2,27.96 Z M8,57 L8,25.816 L28,10.267 L41.7,20.917 L28.6,26.65 C28.2357446,26.808974 28.0002048,27.1685648 28,27.566 L28,36 L21,36 C19.3431458,36 18,37.3431458 18,39 L18,58 L9,58 C8.44771525,58 8,57.5522847 8,57 Z M20,58 L20,39 C20,38.4477153 20.4477153,38 21,38 L28,38 L28,43.267 C28.0049998,46.7956606 29.7010192,50.108123 32.561,52.175 L36,54.656 L36,58 L20,58 Z M40.635,58 L38,58 L38,56.1 L40.635,58 Z M58,43.267 C57.9954196,46.1529088 56.6085528,48.8619467 54.27,50.553 L44,57.961 L33.73,50.553 C31.3914472,48.8619467 30.0045804,46.1529088 30,43.267 L30,28.22 L44,22.092 L58,28.22 L58,43.267 Z" id="Shape"/><path d="M43.6,24.45 L32.6,29.266 C32.2357446,29.424974 32.0002048,29.7845648 32,30.182 L32,43.267 C32.003086,45.5106532 33.0814764,47.6168612 34.9,48.931 L43.415,55.073 C43.7643066,55.3249556 44.2356934,55.3249556 44.585,55.073 L53.1,48.93 C54.9182384,47.616068 55.9965937,45.5103004 56,43.267 L56,30.182 C55.9997952,29.7845648 55.7642554,29.424974 55.4,29.266 L44.4,24.45 C44.1449495,24.3386869 43.8550505,24.3386869 43.6,24.45 Z M54,30.835 L54,43.267 C53.9979253,44.8680054 53.228082,46.3708736 51.93,47.308 L44,53.029 L36.07,47.309 C34.7726536,46.3707907 34.0030618,44.8680418 34,43.267 L34,30.835 L44,26.458 L54,30.835 Z" id="Shape"/><path d="M38.669,40.657 C38.4048368,40.4095273 38.0275609,40.3241282 37.6825746,40.4337156 C37.3375883,40.5433029 37.0787549,40.8307666 37.0058289,41.185318 C36.9329029,41.5398695 37.0572703,41.9061519 37.331,42.143 L41.331,45.743 C41.51459,45.9083772 41.7529071,45.999928 42,46 C42.0418034,46.0002923 42.0835749,45.9976189 42.125,45.992 C42.4129077,45.9558089 42.6708981,45.7963438 42.832,45.555 L50.832,33.555 C51.0302824,33.257755 51.0549246,32.8773069 50.8966441,32.5569669 C50.7383636,32.2366268 50.421207,32.025062 50.0646441,32.0019669 C49.7080812,31.9788718 49.3662824,32.147755 49.168,32.445 L41.81,43.483 L38.669,40.657 Z" id="Shape"/></g></g></svg>
